name D:\school\WTK\thesis\model\3dpredictsim\Results\batch_windlass\Pog_s1_tmt_aCst_d00_k500_WL10_ig24_act_TTC.mot
datacolumns 128
datarows 4
range 1.14111552 1.17534899
endheader
time	pelvis_tilt	pelvis_list	pelvis_rotation	pelvis_tx	pelvis_ty	pelvis_tz	hip_flexion_l	hip_adduction_l	hip_rotation_l	hip_flexion_r	hip_adduction_r	hip_rotation_r	knee_angle_l	knee_angle_r	ankle_angle_l	ankle_angle_r	subtalar_angle_l	subtalar_angle_r	tmt_angle_l	tmt_angle_r	mtp_angle_l	mtp_angle_r	lumbar_extension	lumbar_bending	lumbar_rotation	arm_flex_l	arm_add_l	arm_rot_l	arm_flex_r	arm_add_r	arm_rot_r	elbow_flex_l	elbow_flex_r	pro_sup_l	pro_sup_r	glut_med1_l/activation	glut_med2_l/activation	glut_med3_l/activation	glut_min1_l/activation	glut_min2_l/activation	glut_min3_l/activation	semimem_l/activation	semiten_l/activation	bifemlh_l/activation	bifemsh_l/activation	sar_l/activation	add_long_l/activation	add_brev_l/activation	add_mag1_l/activation	add_mag2_l/activation	add_mag3_l/activation	tfl_l/activation	pect_l/activation	grac_l/activation	glut_max1_l/activation	glut_max2_l/activation	glut_max3_l/activation	iliacus_l/activation	psoas_l/activation	quad_fem_l/activation	gem_l/activation	peri_l/activation	rect_fem_l/activation	vas_med_l/activation	vas_int_l/activation	vas_lat_l/activation	med_gas_l/activation	lat_gas_l/activation	soleus_l/activation	tib_post_l/activation	flex_dig_l/activation	flex_hal_l/activation	tib_ant_l/activation	per_brev_l/activation	per_long_l/activation	per_tert_l/activation	ext_dig_l/activation	ext_hal_l/activation	ercspn_l/activation	intobl_l/activation	extobl_l/activation	glut_med1_r/activation	glut_med2_r/activation	glut_med3_r/activation	glut_min1_r/activation	glut_min2_r/activation	glut_min3_r/activation	semimem_r/activation	semiten_r/activation	bifemlh_r/activation	bifemsh_r/activation	sar_r/activation	add_long_r/activation	add_brev_r/activation	add_mag1_r/activation	add_mag2_r/activation	add_mag3_r/activation	tfl_r/activation	pect_r/activation	grac_r/activation	glut_max1_r/activation	glut_max2_r/activation	glut_max3_r/activation	iliacus_r/activation	psoas_r/activation	quad_fem_r/activation	gem_r/activation	peri_r/activation	rect_fem_r/activation	vas_med_r/activation	vas_int_r/activation	vas_lat_r/activation	med_gas_r/activation	lat_gas_r/activation	soleus_r/activation	tib_post_r/activation	flex_dig_r/activation	flex_hal_r/activation	tib_ant_r/activation	per_brev_r/activation	per_long_r/activation	per_tert_r/activation	ext_dig_r/activation	ext_hal_r/activation	ercspn_r/activation	intobl_r/activation	extobl_r/activation	
          1.14111552	         -2.91966795	         -0.23390001	          7.77292258	          1.42639440	          0.85908573	         -0.00048444	        -14.73969932	         -1.95471345	          8.39892047	         32.16153477	         -0.68823446	         -1.10101420	        -18.64374734	        -21.25748877	        -13.46105362	         -3.25696033	         19.21071625	          9.48185605	         -2.20372597	          0.04263877	         33.61057720	          0.10877000	          1.45133553	         -2.51377214	         -2.39795425	          4.41021283	        -13.47404862	         16.81900593	        -15.42181833	        -13.71473898	         12.78734225	         36.46322299	         19.00691681	         86.51662706	         86.51662706	          0.12997547	          0.07102528	          0.07734637	          0.16433639	          0.12016922	          0.08179478	          0.05003286	          0.05000229	          0.05000291	          0.05000109	          0.07461341	          0.12652558	          0.10171958	          0.05053222	          0.05029239	          0.05088391	          0.16782721	          0.05001867	          0.05000837	          0.05010203	          0.05016583	          0.05948103	          0.33163587	          0.54299232	          0.05000406	          0.05000975	          0.05004590	          0.28517363	          0.06347010	          0.08301960	          0.08382516	          0.14221517	          0.20331295	          0.05000083	          0.13496024	          0.14565409	          0.15756959	          0.18185731	          0.52560135	          0.39161586	          0.53900790	          0.44405588	          0.24511889	          0.05000007	          0.05897476	          0.05098520	          0.08217041	          0.05000945	          0.05000712	          0.05002175	          0.05001323	          0.05001026	          0.14464354	          0.07106913	          0.19034098	          0.07082724	          0.05000732	          0.06512645	          0.05960199	          0.18869223	          0.15072061	          0.12622413	          0.05953630	          0.05035391	          0.10042257	          0.05001540	          0.08504024	          0.12631330	          0.06915167	          0.06987817	          0.10692704	          0.05002392	          0.05000314	          0.05000043	          0.05303671	          0.06999467	          0.07375317	          0.05950985	          0.05951038	          0.05950933	          0.05000324	          0.05000146	          0.05950638	          0.35041258	          0.14178211	          0.08728730	          0.06308699	          0.42910190	          0.05000100	          0.05000020	          0.12001548	          0.13886783	
          1.15252668	         -2.90355183	         -0.18246960	          7.94239134	          1.44460666	          0.85761782	         -0.00022119	        -14.70671233	         -2.10660858	          8.17333638	         31.73303296	         -0.47798943	         -0.84693112	        -20.08117183	        -21.75323764	        -16.08638267	         -3.50370178	         19.47808373	          9.03422472	         -2.73716947	          0.07317347	         34.40825538	          0.12809054	          1.67339091	         -2.33462373	         -2.45076978	          4.11035511	        -13.51366494	         17.08676407	        -16.62837460	        -13.68377777	         12.99358474	         37.16928028	         18.93597767	         86.51662706	         86.51662706	          0.10920625	          0.05967720	          0.06616186	          0.13807670	          0.10096728	          0.06872735	          0.06424717	          0.05952604	          0.06930584	          0.05950976	          0.06269984	          0.21116116	          0.17844500	          0.26699932	          0.05005716	          0.09150097	          0.14100977	          0.08431322	          0.07969119	          0.05001402	          0.05000745	          0.05000667	          0.27864224	          0.45622553	          0.08955109	          0.07085258	          0.06146134	          0.23960435	          0.05332806	          0.06975368	          0.07043048	          0.11948990	          0.17082458	          0.05000012	          0.11339430	          0.12237948	          0.13239088	          0.36770020	          0.49613081	          0.36409860	          0.73818293	          0.58159236	          0.30972327	          0.05000086	          0.07049143	          0.06657793	          0.15463392	          0.05001226	          0.05009919	          0.05000349	          0.05001225	          0.05000500	          0.12153029	          0.05971296	          0.15992552	          0.05950975	          0.05313976	          0.05472063	          0.05007873	          0.23869124	          0.22936113	          0.15513085	          0.05002702	          0.05001031	          0.08437706	          0.05950810	          0.12597436	          0.15936664	          0.05810231	          0.05871339	          0.16302304	          0.05000502	          0.05789997	          0.07082593	          0.23913379	          0.22683218	          0.20689504	          0.05000047	          0.05000093	          0.05000003	          0.12363766	          0.05949504	          0.05000082	          0.55439288	          0.11912608	          0.07333925	          0.39314673	          0.50719813	          0.41678044	          0.05000015	          0.10083763	          0.11667746	
          1.16393783	         -2.88237737	         -0.14160639	          8.08057458	          1.46287674	          0.85576313	          0.00002619	        -14.44288087	         -2.22490036	          7.94462053	         31.16382628	         -0.23571211	         -0.53384009	        -21.97927765	        -22.81025926	        -18.35730934	         -3.31122409	         19.66318843	          8.51016412	         -2.99149029	         -0.08024676	         33.77846296	          0.05208194	          1.89095756	         -2.12960997	         -2.48736469	          3.76965930	        -13.56809748	         17.29728711	        -17.77941337	        -13.67015865	         13.30421757	         37.87129035	         18.80318626	         86.51662706	         86.51662706	          0.09175607	          0.05893507	          0.05950777	          0.11601315	          0.08483375	          0.05774752	          0.09746495	          0.05001521	          0.05823279	          0.05000112	          0.05268327	          0.18122986	          0.32673974	          0.22433690	          0.09163482	          0.07689476	          0.11847829	          0.07541585	          0.06695940	          0.05937216	          0.05950217	          0.05951487	          0.23411674	          0.42280979	          0.07525015	          0.05953399	          0.05164046	          0.20131682	          0.10031614	          0.09026347	          0.05917863	          0.10039604	          0.14352772	          0.06469419	          0.09527450	          0.10282407	          0.11123564	          0.30894362	          0.41687348	          0.30591932	          0.63772066	          0.72221940	          0.52341609	          0.08153262	          0.05922738	          0.05596045	          0.23324587	          0.25218336	          0.42350232	          0.06246102	          0.05000478	          0.19096087	          0.10211048	          0.05017184	          0.13437031	          0.05000073	          0.05000150	          0.07082665	          0.11941952	          0.20055300	          0.20856993	          0.17768212	          0.05000081	          0.06062828	          0.07089812	          0.05000100	          0.21335609	          0.21984708	          0.05744042	          0.05000264	          0.13697398	          0.12391953	          0.29869366	          0.05950841	          0.22451301	          0.21925826	          0.21579004	          0.05417053	          0.05436306	          0.05950926	          0.13480123	          0.05000313	          0.05012382	          0.46580371	          0.10010311	          0.06163085	          0.33032413	          0.42615078	          0.35018169	          0.05000136	          0.08472432	          0.09803300	
          1.17534899	         -2.85969249	         -0.11240945	          8.17903816	          1.48097001	          0.85383818	          0.00026918	        -13.96807092	         -2.32903852	          7.73370208	         30.47334352	          0.03296663	         -0.19968839	        -24.22750511	        -23.95568341	        -20.32317394	         -2.34331940	         19.79822622	          8.00537271	         -2.98690088	          0.34676897	         31.58042226	         -0.11147461	          2.09126094	         -1.90126146	         -2.50855684	          3.43049697	        -13.62096724	         17.46919037	        -18.80600886	        -13.66297247	         13.72955209	         38.49887051	         18.55937694	         86.51662706	         86.51662706	          0.07709421	          0.05000123	          0.05000077	          0.09747545	          0.07127833	          0.05000452	          0.13185932	          0.05000117	          0.05000237	          0.05000110	          0.05001551	          0.18788112	          0.27456368	          0.18849556	          0.07700969	          0.06461464	          0.09954977	          0.06337865	          0.05626143	          0.05000866	          0.05000565	          0.05000692	          0.19670620	          0.38788572	          0.06322595	          0.05002411	          0.05000712	          0.16914754	          0.08429019	          0.07584639	          0.09441346	          0.08435332	          0.12059280	          0.05435655	          0.08005021	          0.08639370	          0.09346110	          0.25957611	          0.35025948	          0.25703513	          0.53581639	          0.84082049	          0.43977695	          0.11636932	          0.05000012	          0.05000098	          0.30534021	          0.44165340	          0.61478653	          0.09385255	          0.33191458	          0.42005602	          0.08579378	          0.05950983	          0.11289864	          0.05951031	          0.05000695	          0.05950907	          0.10033700	          0.16850604	          0.17524232	          0.15666052	          0.05000307	          0.05094141	          0.05957008	          0.29653126	          0.26836110	          0.20200308	          0.05000038	          0.05000042	          0.14113947	          0.10412477	          0.25096723	          0.05000025	          0.35192923	          0.33979781	          0.32555431	          0.05000018	          0.05000039	          0.05000002	          0.19444504	          0.07596615	          0.05000336	          0.39979492	          0.08410727	          0.05178268	          0.27754045	          0.35805428	          0.29422691	          0.05000019	          0.07118582	          0.08236784	
